<?xml version="1.0" standalone="no"?>
<!DOCTYPE svg PUBLIC "-//W3C//DTD SVG 20010904//EN"
 "http://www.w3.org/TR/2001/REC-SVG-20010904/DTD/svg10.dtd">
<svg version="1.0" xmlns="http://www.w3.org/2000/svg"
 width="201.000000pt" height="201.000000pt" viewBox="0 0 201.000000 201.000000"
 preserveAspectRatio="xMidYMid meet">
<metadata>
Created by potrace 1.14, written by Peter Selinger 2001-2017
</metadata>
<g transform="translate(0.000000,201.000000) scale(0.100000,-0.100000)"
fill="#000000" stroke="none">
<path d="M463 1635 c-61 -37 -92 -110 -73 -176 6 -21 4 -41 -10 -72 -10 -23
-82 -197 -160 -387 -91 -220 -152 -356 -170 -375 -39 -43 -48 -64 -45 -112 7
-110 122 -161 218 -98 33 21 61 80 53 111 -5 19 27 107 119 332 161 391 145
360 162 321 7 -17 13 -35 13 -40 0 -5 -45 -117 -100 -249 -79 -189 -107 -247
-133 -269 -30 -28 -32 -34 -32 -96 0 -64 1 -68 37 -101 21 -19 49 -35 63 -35
14 -1 31 -2 38 -2 29 -1 67 17 92 43 21 22 29 42 32 82 4 47 36 137 103 293
l22 50 15 -35 c77 -181 94 -231 85 -263 -17 -63 13 -130 78 -174 73 -50 190
-11 226 74 30 71 2 160 -65 205 -30 21 -48 60 -186 392 -140 338 -152 372
-143 403 37 135 -118 250 -239 178z m123 -71 c39 -26 46 -48 30 -94 l-14 -42
74 -178 c41 -98 74 -181 74 -184 0 -3 14 -35 30 -71 17 -36 30 -68 30 -71 0
-3 7 -20 15 -37 8 -18 37 -86 64 -152 45 -109 53 -122 87 -140 47 -24 62 -61
45 -103 -18 -44 -62 -60 -106 -39 -41 20 -53 55 -36 104 12 32 8 45 -86 268
-54 129 -101 231 -105 227 -4 -4 -53 -117 -108 -250 -72 -173 -99 -249 -94
-266 8 -32 -10 -62 -41 -68 -64 -13 -90 63 -35 104 17 12 30 25 30 30 0 5 9
27 19 51 38 83 201 482 201 490 0 5 -7 23 -15 40 -8 18 -32 74 -53 126 -21 52
-42 96 -47 97 -6 2 -71 -144 -145 -323 -224 -542 -218 -526 -209 -549 17 -48
-43 -86 -85 -53 -37 29 -24 81 24 101 4 2 86 195 183 429 166 400 176 429 163
453 -18 35 -9 72 22 96 30 24 55 25 88 4z"/>
<path d="M530 1515 c-16 -19 -5 -47 17 -43 22 4 29 43 9 51 -8 3 -20 -1 -26
-8z"/>
<path d="M933 543 c-18 -7 -16 -32 2 -39 23 -9 48 15 34 32 -12 15 -16 16 -36
7z"/>
<path d="M1365 1645 c-42 -20 -60 -36 -77 -70 -29 -55 -27 -120 6 -168 l24
-35 0 -363 0 -362 -25 -38 c-73 -111 18 -260 150 -245 27 3 61 15 80 29 28 20
42 24 107 22 41 -1 87 3 101 7 14 5 83 66 152 137 l127 128 0 323 0 323 -122
124 c-68 69 -132 130 -143 136 -11 6 -59 11 -106 12 -48 0 -93 5 -100 11 -50
41 -125 53 -174 29z m120 -93 c25 -27 30 -28 120 -27 l95 1 117 -118 118 -118
1 -280 1 -279 -119 -118 -118 -118 -94 0 c-84 0 -97 -3 -118 -22 -59 -55 -138
-28 -138 47 0 29 6 43 25 58 l25 20 0 407 0 407 -25 30 c-39 47 -31 98 20 126
33 19 62 13 90 -16z"/>
<path d="M1404 1509 c-3 -6 0 -18 9 -26 18 -18 37 -9 37 18 0 21 -34 27 -46 8z"/>
<path d="M1479 1442 l-26 -28 1 -404 1 -405 28 -27 c26 -26 34 -28 113 -28
l84 0 102 102 102 102 -1 257 0 256 -102 102 -101 101 -88 0 c-81 -1 -89 -3
-113 -28z m243 -129 l78 -78 0 -225 0 -225 -77 -77 c-77 -77 -78 -78 -129 -78
-41 0 -52 4 -55 18 -4 14 -3 647 0 720 1 20 6 22 53 22 52 0 53 -1 130 -77z"/>
<path d="M1410 535 c-10 -11 -10 -19 -2 -27 15 -15 44 -2 40 19 -4 23 -22 27
-38 8z"/>
</g>
</svg>
